<svg version="1.1" viewBox="0.0 0.0 50.0 50.0" fill="none" stroke="none" stroke-linecap="square" stroke-miterlimit="10" xmlns:xlink="http://www.w3.org/1999/xlink" xmlns="http://www.w3.org/2000/svg"><clipPath id="p.0"><path d="m0 0l50.0 0l0 50.0l-50.0 0l0 -50.0z" clip-rule="nonzero"/></clipPath><g clip-path="url(#p.0)"><path fill="#000000" fill-opacity="0.0" d="m0 0l50.0 0l0 50.0l-50.0 0z" fill-rule="evenodd"/><path fill="#000000" fill-opacity="0.0" d="m5.4881887 25.0l0 0c0 -10.776075 8.735736 -19.51181 19.51181 -19.51181l0 0c5.1748543 0 10.13776 2.0557032 13.796932 5.714877c3.6591759 3.659175 5.714878 8.62208 5.714878 13.796934l0 0c0 10.776077 -8.735733 19.51181 -19.51181 19.51181l0 0c-10.776075 0 -19.51181 -8.735733 -19.51181 -19.51181z" fill-rule="evenodd"/><path stroke="#ff0000" stroke-width="1.0" stroke-linejoin="round" stroke-linecap="butt" d="m5.4881887 25.0l0 0c0 -10.776075 8.735736 -19.51181 19.51181 -19.51181l0 0c5.1748543 0 10.13776 2.0557032 13.796932 5.714877c3.6591759 3.659175 5.714878 8.62208 5.714878 13.796934l0 0c0 10.776077 -8.735733 19.51181 -19.51181 19.51181l0 0c-10.776075 0 -19.51181 -8.735733 -19.51181 -19.51181z" fill-rule="evenodd"/><path fill="#000000" fill-opacity="0.0" d="m4.67979 -3.7480314l47.05512 0l0 41.51181l-47.05512 0z" fill-rule="evenodd"/><path fill="#ff0000" d="m13.8204155 35.97197l8.859375 -11.9375l-7.8125 -10.96875l3.609375 0l4.15625 5.875q1.296875 1.828125 1.84375 2.8125q0.765625 -1.25 1.8125 -2.609375l4.609375 -6.078125l3.296875 0l-8.046875 10.796875l8.671875 12.109375l-3.75 0l-5.765625 -8.171875q-0.484375 -0.703125 -1.0 -1.53125q-0.765625 1.25 -1.09375 1.71875l-5.75 7.984375l-3.640625 0z" fill-rule="nonzero"/></g></svg>